<svg xmlns="http://www.w3.org/2000/svg" width="172" height="35" viewBox="0 0 172 35">
    <g fill="#FFF" fill-rule="evenodd">
        <path d="M31.032 18.309l-1.597 1.577a2.268 2.268 0 0 0 0 3.228l1.597 1.577a2.268 2.268 0 0 1 0 3.228l-5.576 5.507a2.268 2.268 0 0 1-3.187 0L11.827 23.114a2.268 2.268 0 0 1 0-3.228L22.27 9.574a2.268 2.268 0 0 1 3.187 0l5.576 5.507a2.268 2.268 0 0 1 0 3.228z"/>
        <path d="M11.572 18.309l-1.598 1.577a2.268 2.268 0 0 0 0 3.228l1.598 1.578a2.268 2.268 0 0 1 0 3.227l-.943.93a2.268 2.268 0 0 1-3.187 0l-5.808-5.735a2.268 2.268 0 0 1 0-3.228l5.808-5.736a2.268 2.268 0 0 1 3.187 0l.943.931a2.268 2.268 0 0 1 0 3.228zM40.283 14.15l5.808 5.736a2.268 2.268 0 0 1 0 3.228l-5.808 5.736a2.268 2.268 0 0 1-3.187 0l-5.808-5.736a2.268 2.268 0 0 1 0-3.228l5.808-5.736a2.268 2.268 0 0 1 3.187 0z"/>
        <g stroke="#FFF" stroke-width=".594">
            <path d="M65.209 16.294C64.119 15.432 62.623 15 60.723 15H55v13.942h2.096v-4.223h3.627c1.9 0 3.396-.431 4.486-1.294 1.09-.863 1.635-2.052 1.635-3.565 0-1.514-.545-2.702-1.635-3.566zm-1.51 5.886c-.698.538-1.712.807-3.04.807h-3.563v-6.254h3.564c1.327 0 2.34.269 3.04.806.698.538 1.048 1.311 1.048 2.32 0 1.01-.35 1.783-1.049 2.32zm8.52-5.63h1.864V27.4h7.062v1.54h-8.926V16.55zm21.764 9.294l1.435 3.098h1.956L91.45 16.549h-1.845l-5.907 12.393h1.92l1.434-3.098h6.932zm-.652-1.417l-2.814-6.072-2.813 6.072h5.627zm5.776-6.338h4.472v10.853h1.845V18.089h4.472v-1.54H99.107v1.54zm15.149-1.54h1.863v12.393h-1.863V16.549zm19.323 12.393V16.549h-1.864v9.242l-7.826-9.242h-1.528v12.393h1.864V19.7l7.826 9.242h1.528zm11.645.141c-1.739 0-3.093-.472-4.062-1.416-.969-.944-1.453-2.301-1.453-4.072V16.55h1.863v6.975c0 2.656 1.224 3.984 3.671 3.984 1.193 0 2.106-.328 2.74-.983.633-.655.95-1.655.95-3v-6.976h1.807v7.046c0 1.782-.485 3.143-1.454 4.08-.969.94-2.322 1.408-4.062 1.408zm19.025-1.646l4.714-7.524.019 9.029h1.788l-.018-12.393h-1.528l-5.366 8.71-5.441-8.71h-1.528v12.393h1.789v-8.976l4.714 7.47h.857z"/>
        </g>
        <path fill-rule="nonzero" d="M57.299 2.54c.36 0 .695.067 1.008.204a2.566 2.566 0 0 1 1.377 1.442c.132.335.199.707.199 1.113s-.067.778-.2 1.116a2.614 2.614 0 0 1-.553.873 2.528 2.528 0 0 1-1.831.77c-.258 0-.479-.029-.662-.087a1.891 1.891 0 0 1-.463-.211 1.94 1.94 0 0 1-.375-.3v2.462H54.72V2.598h.779l.24.545c.106-.114.229-.215.37-.305.128-.07.29-.138.486-.202.195-.065.43-.097.703-.097zm-.059 4.5c.207 0 .405-.043.592-.127a1.52 1.52 0 0 0 .498-.36c.145-.157.259-.34.343-.551.084-.211.126-.445.126-.703 0-.258-.042-.492-.126-.703a1.762 1.762 0 0 0-.343-.551 1.52 1.52 0 0 0-.498-.36 1.452 1.452 0 0 0-1.187 0 1.48 1.48 0 0 0-.498.36c-.142.156-.255.34-.34.554a1.892 1.892 0 0 0-.125.7c0 .258.042.492.126.703.084.21.197.394.34.55a1.48 1.48 0 0 0 1.092.487zM64.8 5.298a1.885 1.885 0 0 0-.457-1.254 1.415 1.415 0 0 0-1.043-.486 1.415 1.415 0 0 0-1.043.486 1.88 1.88 0 0 0-.457 1.254 1.885 1.885 0 0 0 .457 1.254 1.415 1.415 0 0 0 1.043.486 1.415 1.415 0 0 0 1.043-.486 1.889 1.889 0 0 0 .457-1.254zm1.078 0c0 .406-.065.778-.196 1.116a2.528 2.528 0 0 1-2.382 1.644 2.518 2.518 0 0 1-1.831-.77 2.583 2.583 0 0 1-.551-.871 3.06 3.06 0 0 1-.196-1.12c0-.405.065-.777.196-1.112a2.566 2.566 0 0 1 1.374-1.441 2.487 2.487 0 0 1 1.008-.206c.36 0 .695.068 1.008.205a2.566 2.566 0 0 1 1.374 1.442c.13.335.196.707.196 1.113zm4.383-.838L69.117 8h-.896l-1.805-5.402H67.5l1.201 3.72 1.195-3.72h.721l1.201 3.72 1.202-3.72h1.078L72.298 8h-.902L70.26 4.46zm9.357 1.98c-.09.223-.203.432-.34.627-.136.196-.3.368-.492.516a2.22 2.22 0 0 1-.665.349 2.668 2.668 0 0 1-.847.126 2.495 2.495 0 0 1-1.828-.77 2.645 2.645 0 0 1-.55-.871 3.02 3.02 0 0 1-.2-1.12c0-.405.067-.777.2-1.112a2.75 2.75 0 0 1 .539-.87 2.42 2.42 0 0 1 1.78-.777 2.42 2.42 0 0 1 1.781.776c.228.245.407.535.54.87.133.336.2.708.2 1.114 0 .062-.005.124-.012.184-.008.06-.016.113-.024.156a2.62 2.62 0 0 1-.023.14h-3.844c.016.168.064.328.147.48.082.153.184.287.307.402a1.46 1.46 0 0 0 .987.378c.329 0 .59-.07.783-.21.193-.142.333-.27.419-.388h1.142zM77.215 3.56c-.36 0-.663.122-.911.366s-.406.563-.472.958h2.883a1.643 1.643 0 0 0-.478-.955c-.256-.246-.596-.37-1.022-.37zm6.053-1.02c.062 0 .114.004.155.012l.114.023.094.024v1.084a4.834 4.834 0 0 1-.234-.05.58.58 0 0 0-.13-.015c-.183 0-.355.036-.515.109a1.353 1.353 0 0 0-.7.712 1.27 1.27 0 0 0-.103.503V8h-1.078V2.598h.78l.24.545a1.74 1.74 0 0 1 .345-.305 2.45 2.45 0 0 1 .428-.202c.172-.065.373-.097.604-.097zm6 3.902c-.09.223-.204.432-.34.627-.137.196-.301.368-.492.516a2.22 2.22 0 0 1-.665.349 2.668 2.668 0 0 1-.847.126 2.495 2.495 0 0 1-1.828-.77 2.645 2.645 0 0 1-.551-.871 3.02 3.02 0 0 1-.2-1.12c0-.405.067-.777.2-1.112a2.75 2.75 0 0 1 .539-.87 2.42 2.42 0 0 1 1.781-.777 2.42 2.42 0 0 1 1.781.776c.227.245.407.535.54.87.132.336.199.708.199 1.114 0 .062-.004.124-.012.184l-.023.156a2.62 2.62 0 0 1-.024.14h-3.844c.016.168.065.328.147.48.082.153.184.287.308.402a1.46 1.46 0 0 0 .987.378c.328 0 .589-.07.782-.21.193-.142.333-.27.419-.388h1.143zM86.865 3.56c-.36 0-.663.122-.91.366-.249.244-.406.563-.473.958h2.883a1.643 1.643 0 0 0-.477-.955c-.256-.246-.597-.37-1.023-.37zm5.936 4.5a2.518 2.518 0 0 1-1.831-.77 2.583 2.583 0 0 1-.551-.871 3.06 3.06 0 0 1-.196-1.12c0-.405.065-.777.196-1.112a2.566 2.566 0 0 1 1.374-1.441 2.487 2.487 0 0 1 1.008-.206c.258 0 .478.032.662.097.183.064.34.132.469.202.144.09.267.191.369.305V.44h1.078V8h-.78l-.24-.54a1.741 1.741 0 0 1-.369.3 2.201 2.201 0 0 1-.486.208c-.195.06-.43.09-.703.09zm.058-4.5c-.207 0-.404.042-.591.126a1.52 1.52 0 0 0-.498.36c-.145.156-.26.34-.343.554a1.892 1.892 0 0 0-.126.7c0 .258.042.492.126.703.084.21.198.394.343.55.144.157.31.277.498.361a1.452 1.452 0 0 0 1.187 0 1.48 1.48 0 0 0 .497-.36 1.79 1.79 0 0 0 .34-.551c.084-.211.126-.445.126-.703 0-.258-.042-.492-.126-.703a1.79 1.79 0 0 0-.34-.551 1.48 1.48 0 0 0-1.093-.486zm9.293 4.5c-.273 0-.507-.03-.703-.088a1.94 1.94 0 0 1-.855-.51l-.24.539h-.78V.441h1.078v2.702c.106-.114.23-.215.375-.305.13-.07.285-.138.47-.202.183-.065.401-.097.655-.097.36 0 .696.068 1.008.205a2.566 2.566 0 0 1 1.377 1.442c.133.335.2.707.2 1.113s-.067.778-.2 1.116a2.614 2.614 0 0 1-.554.873 2.528 2.528 0 0 1-1.83.77zm-.058-4.5c-.207 0-.405.042-.592.126a1.52 1.52 0 0 0-.498.36c-.145.156-.259.34-.343.554a1.892 1.892 0 0 0-.126.7c0 .258.042.492.126.703.084.21.198.394.343.55.144.157.31.277.498.361a1.452 1.452 0 0 0 1.187 0 1.48 1.48 0 0 0 .498-.36 1.79 1.79 0 0 0 .34-.551c.083-.211.125-.445.125-.703 0-.258-.042-.492-.126-.703a1.79 1.79 0 0 0-.34-.551 1.48 1.48 0 0 0-1.092-.486zm3.176-.961h1.142l1.5 3.902 1.5-3.902h1.143l-2.285 5.76c-.122.304-.24.559-.355.764-.115.205-.24.371-.375.498a1.24 1.24 0 0 1-.448.276 1.7 1.7 0 0 1-.809.061.528.528 0 0 1-.111-.035V9.02c.305 0 .535-.064.691-.19.157-.128.266-.285.328-.473l.182-.539-2.103-5.22z" opacity=".6"/>
    </g>
</svg>
