<svg xmlns="http://www.w3.org/2000/svg" width="22" height="20" viewBox="0 0 22 20">
    <path fill="#FFF" fill-rule="evenodd" d="M1.904.892L.88 3.886l.67 3.176-.434.334.63.483-.48.369.638.57-.404.27.926 1.06-1.372 4.301 1.291 4.326 4.633-1.2 2.459 1.903h3.078l2.68-1.95 4.46 1.247 1.292-4.327h.005l-1.378-4.3.925-1.06-.404-.27.638-.57-.479-.368.63-.484-.434-.336.67-3.174L20.095.892l-6.453 2.354H8.36L1.904.892zM13.468 11.45l2.636 1.232-3.688 1.056 1.052-2.288zm-7.572 1.229l2.637-1.229 1.052 2.288-3.689-1.06zm3.543 3.516l.458-.261h2.206l.43.274.146 1.598h-3.39l.15-1.611z"/>
</svg>
