<svg xmlns="http://www.w3.org/2000/svg" width="43" height="86" viewBox="0 0 43 86">
    <g fill="none" fill-rule="nonzero">
        <path fill="#FF6932" d="M23.654 37.693V44h-7.308v-6.307C7.601 35.987 1 28.276 1 19.023 1 8.515 9.507 0 20 0s19 8.516 19 19.022c0 9.254-6.6 16.965-15.346 18.67zM20 30.813c6.505 0 11.779-5.28 11.779-11.792 0-6.513-5.274-11.792-11.779-11.792S8.221 12.509 8.221 19.02 13.495 30.813 20 30.813z"/>
        <g fill="#FFF">
            <path d="M4.8 69.2c.48 0 .927-.09 1.34-.27a3.47 3.47 0 0 0 1.08-.73c.307-.307.547-.673.72-1.1.173-.427.26-.893.26-1.4 0-.493-.087-.957-.26-1.39a3.26 3.26 0 0 0-.72-1.11 3.47 3.47 0 0 0-1.08-.73 3.32 3.32 0 0 0-1.34-.27H3.4v7h1.4zM.5 59.4h4.3c.88 0 1.7.163 2.46.49a6.341 6.341 0 0 1 3.35 3.35c.327.76.49 1.58.49 2.46 0 .88-.163 1.7-.49 2.46a6.341 6.341 0 0 1-3.35 3.35c-.76.327-1.58.49-2.46.49H.5V59.4zm21.1 7.7l-1.4-4.2-1.4 4.2h2.8zM18 69.6l-.8 2.4h-3l4.5-12.6h3L26.2 72h-3l-.8-2.4H18zm21.2-3.9c0-.52-.087-1-.26-1.44-.173-.44-.41-.82-.71-1.14-.3-.32-.65-.57-1.05-.75-.4-.18-.827-.27-1.28-.27-.453 0-.88.09-1.28.27-.4.18-.75.43-1.05.75-.3.32-.537.7-.71 1.14-.173.44-.26.92-.26 1.44 0 .52.087 1 .26 1.44.173.44.41.82.71 1.14.3.32.65.57 1.05.75.4.18.827.27 1.28.27.453 0 .88-.09 1.28-.27.4-.18.75-.43 1.05-.75.3-.32.537-.7.71-1.14.173-.44.26-.92.26-1.44zm2.9 0a6.41 6.41 0 0 1-.49 2.52 6.575 6.575 0 0 1-1.33 2.03 6.06 6.06 0 0 1-4.38 1.85 6.06 6.06 0 0 1-4.38-1.85 6.575 6.575 0 0 1-1.33-2.03 6.41 6.41 0 0 1-.49-2.52c0-.893.163-1.73.49-2.51.327-.78.77-1.46 1.33-2.04a6.06 6.06 0 0 1 4.38-1.85 6.06 6.06 0 0 1 4.38 1.85c.56.58 1.003 1.26 1.33 2.04.327.78.49 1.617.49 2.51z"/>
            <path d="M5.8 85H4.35v-4.9h-1.8v-1.4H7.6v1.4H5.8V85zm8.55-3.15c0-.26-.043-.5-.13-.72a1.774 1.774 0 0 0-.355-.57 1.63 1.63 0 0 0-.525-.375c-.2-.09-.413-.135-.64-.135-.227 0-.44.045-.64.135-.2.09-.375.215-.525.375-.15.16-.268.35-.355.57-.087.22-.13.46-.13.72 0 .26.043.5.13.72.087.22.205.41.355.57.15.16.325.285.525.375.2.09.413.135.64.135.227 0 .44-.045.64-.135.2-.09.375-.215.525-.375.15-.16.268-.35.355-.57.087-.22.13-.46.13-.72zm1.45 0c0 .453-.082.873-.245 1.26a3.288 3.288 0 0 1-.665 1.015 3.03 3.03 0 0 1-2.19.925 3.03 3.03 0 0 1-2.19-.925 3.288 3.288 0 0 1-.665-1.015 3.205 3.205 0 0 1-.245-1.26 3.272 3.272 0 0 1 .91-2.275 3.03 3.03 0 0 1 2.19-.925 3.03 3.03 0 0 1 2.19.925 3.272 3.272 0 0 1 .91 2.275zm7.15 0c0-.26-.043-.5-.13-.72a1.774 1.774 0 0 0-.355-.57 1.63 1.63 0 0 0-.525-.375c-.2-.09-.413-.135-.64-.135-.227 0-.44.045-.64.135-.2.09-.375.215-.525.375-.15.16-.268.35-.355.57-.087.22-.13.46-.13.72 0 .26.043.5.13.72.087.22.205.41.355.57.15.16.325.285.525.375.2.09.413.135.64.135.227 0 .44-.045.64-.135.2-.09.375-.215.525-.375.15-.16.268-.35.355-.57.087-.22.13-.46.13-.72zm1.45 0c0 .453-.082.873-.245 1.26a3.288 3.288 0 0 1-.665 1.015 3.03 3.03 0 0 1-2.19.925 3.03 3.03 0 0 1-2.19-.925 3.288 3.288 0 0 1-.665-1.015 3.205 3.205 0 0 1-.245-1.26 3.272 3.272 0 0 1 .91-2.275 3.03 3.03 0 0 1 2.19-.925 3.03 3.03 0 0 1 2.19.925 3.272 3.272 0 0 1 .91 2.275zm2.7-3.15h1.45v4.9h2.85V85h-4.3v-6.3zm6.55 1.75c0-.24.052-.468.155-.685.103-.217.252-.407.445-.57.193-.163.428-.295.705-.395.277-.1.592-.15.945-.15.34 0 .645.05.915.15.27.1.5.24.69.42.19.18.337.392.44.635.103.243.155.508.155.795l-1.4.1c0-.253-.07-.45-.21-.59-.14-.14-.337-.21-.59-.21-.227 0-.408.062-.545.185a.55.55 0 0 0-.205.415c0 .153.077.27.23.35.153.08.345.155.575.225l.745.225c.267.08.515.193.745.34.23.147.422.34.575.58.153.24.23.55.23.93a1.668 1.668 0 0 1-.61 1.3c-.2.167-.447.3-.74.4-.293.1-.627.15-1 .15-.36 0-.683-.05-.97-.15a2.025 2.025 0 0 1-.725-.425 1.838 1.838 0 0 1-.45-.65A2.14 2.14 0 0 1 33.6 83l1.4-.1c0 .567.3.85.9.85.28 0 .492-.065.635-.195a.597.597 0 0 0 .215-.455c0-.16-.077-.283-.23-.37a3.082 3.082 0 0 0-.575-.24 45.52 45.52 0 0 0-.745-.23 3.069 3.069 0 0 1-.745-.335 1.859 1.859 0 0 1-.575-.565c-.153-.233-.23-.537-.23-.91z" opacity=".6"/>
        </g>
    </g>
</svg>
