<svg xmlns="http://www.w3.org/2000/svg" width="14" height="20" viewBox="0 0 14 20">
    <path fill="#FFF" fill-rule="nonzero" d="M7.011 0c-2.79 0-5.048 2.22-5.048 4.964v1.86C.983 7 0 7.231 0 7.534v9.709s0 .268.307.395c1.112.443 5.488 1.966 6.493 2.315.13.047.166.047.2.047.048 0 .07 0 .2-.047 1.005-.349 5.392-1.872 6.504-2.315.285-.116.296-.384.296-.384v-9.72c0-.303-.969-.546-1.951-.71v-1.86C12.063 2.22 9.79 0 7.01 0zm0 2.373c1.645 0 2.639.977 2.639 2.594v1.617a36.448 36.448 0 0 0-5.274 0V4.967c0-1.62.994-2.594 2.635-2.594zM7 8.965c2.295 0 4.22.174 4.22.487v6.057c0 .095-.01.106-.095.139-.082.036-3.914 1.395-3.914 1.395s-.155.047-.2.047c-.048 0-.2-.058-.2-.058s-3.832-1.36-3.914-1.395c-.081-.036-.095-.047-.095-.139V9.441C2.779 9.128 4.705 8.965 7 8.965z"/>
</svg>
