<?xml version="1.0" standalone="no"?>
<!DOCTYPE svg PUBLIC "-//W3C//DTD SVG 20010904//EN"
 "http://www.w3.org/TR/2001/REC-SVG-20010904/DTD/svg10.dtd">
<svg version="1.0" xmlns="http://www.w3.org/2000/svg"
 width="1024.000000pt" height="1024.000000pt" viewBox="0 0 1024.000000 1024.000000"
 preserveAspectRatio="xMidYMid meet">
<metadata>
Created by potrace 1.11, written by Peter Selinger 2001-2013
</metadata>
<g transform="translate(0.000000,1024.000000) scale(0.100000,-0.100000)"
fill="#000000" stroke="none">
<path d="M4951 10208 c-114 -13 -284 -57 -411 -107 -169 -66 -332 -171 -544
-350 -145 -122 -3385 -3362 -3507 -3507 -179 -212 -284 -375 -350 -544 -94
-238 -132 -483 -110 -706 7 -70 25 -177 40 -238 71 -278 180 -476 420 -760
122 -145 3362 -3385 3507 -3507 284 -240 482 -349 760 -420 241 -61 487 -61
728 0 278 71 476 180 760 420 145 122 3385 3362 3507 3507 240 284 349 482
420 760 61 241 61 487 0 728 -71 278 -180 476 -420 760 -122 145 -3362 3385
-3507 3507 -284 240 -483 350 -759 419 -184 46 -351 58 -534 38z m424 -2438
c901 -98 1668 -711 1949 -1560 87 -262 118 -455 119 -735 1 -375 -70 -686
-232 -1020 -297 -609 -853 -1062 -1508 -1228 l-123 -31 0 -383 0 -383 -445 0
-445 0 0 384 0 384 -77 17 c-305 66 -671 243 -928 450 -105 84 -268 248 -358
360 -491 612 -636 1429 -387 2179 280 839 1021 1448 1900 1560 126 16 411 20
535 6z"/>
<path d="M4899 6886 c-524 -93 -959 -464 -1124 -959 -59 -177 -70 -251 -70
-457 0 -141 4 -205 18 -270 121 -568 523 -986 1083 -1127 101 -25 124 -27 319
-28 283 0 411 28 640 139 404 197 688 569 777 1018 28 145 30 378 4 513 -111
584 -530 1021 -1106 1157 -111 26 -427 34 -541 14z"/>
</g>
</svg>
